<svg width="687" height="145" viewBox="0 0 687 145" fill="none" xmlns="http://www.w3.org/2000/svg">
<rect width="687" height="145" rx="50" fill="black"/>
<path d="M48 97V57.561H52.2184V62.1174H52.7365C53.0572 61.6194 53.5012 60.9845 54.0686 60.2127C54.6484 59.4284 55.4748 58.7312 56.5479 58.1212C57.6333 57.4987 59.1012 57.1875 60.9514 57.1875C63.3443 57.1875 65.4535 57.7913 67.279 58.9989C69.1045 60.2064 70.5292 61.9182 71.553 64.1341C72.5767 66.3501 73.0886 68.9644 73.0886 71.9771C73.0886 75.0147 72.5767 77.6477 71.553 79.8761C70.5292 82.0921 69.1107 83.8101 67.2975 85.0301C65.4843 86.2377 63.3936 86.8415 61.0254 86.8415C59.1998 86.8415 57.7382 86.5365 56.6404 85.9264C55.5426 85.304 54.6977 84.6006 54.1056 83.8163C53.5136 83.0196 53.0572 82.3598 52.7365 81.8369H52.3665V97H48ZM52.2924 71.9024C52.2924 74.0686 52.607 75.9795 53.236 77.6353C53.8651 79.2786 54.784 80.5671 55.9928 81.5008C57.2016 82.422 58.6818 82.8826 60.4333 82.8826C62.2588 82.8826 63.7821 82.3971 65.0033 81.4261C66.2367 80.4426 67.1618 79.123 67.7786 77.4672C68.4076 75.799 68.7222 73.9441 68.7222 71.9024C68.7222 69.8857 68.4138 68.0681 67.7971 66.4497C67.1927 64.8188 66.2737 63.5304 65.0403 62.5842C63.8192 61.6256 62.2835 61.1463 60.4333 61.1463C58.6571 61.1463 57.1646 61.6007 55.9558 62.5095C54.747 63.4059 53.8343 64.6632 53.2175 66.2816C52.6008 67.8876 52.2924 69.7612 52.2924 71.9024Z" fill="white"/>
<path d="M91.2945 86.8415C88.7289 86.8415 86.4778 86.2252 84.5413 84.9928C82.6171 83.7603 81.1123 82.0361 80.0268 79.8201C78.9537 77.6042 78.4172 75.0147 78.4172 72.0518C78.4172 69.064 78.9537 66.4559 80.0268 64.2275C81.1123 61.9991 82.6171 60.2687 84.5413 59.0362C86.4778 57.8037 88.7289 57.1875 91.2945 57.1875C93.8601 57.1875 96.105 57.8037 98.0292 59.0362C99.9658 60.2687 101.471 61.9991 102.544 64.2275C103.629 66.4559 104.172 69.064 104.172 72.0518C104.172 75.0147 103.629 77.6042 102.544 79.8201C101.471 82.0361 99.9658 83.7603 98.0292 84.9928C96.105 86.2252 93.8601 86.8415 91.2945 86.8415ZM91.2945 82.8826C93.2434 82.8826 94.8469 82.3784 96.105 81.37C97.3631 80.3617 98.2944 79.0358 98.8988 77.3925C99.5032 75.7492 99.8054 73.969 99.8054 72.0518C99.8054 70.1347 99.5032 68.3482 98.8988 66.6925C98.2944 65.0367 97.3631 63.6984 96.105 62.6776C94.8469 61.6568 93.2434 61.1463 91.2945 61.1463C89.3456 61.1463 87.7421 61.6568 86.484 62.6776C85.2259 63.6984 84.2946 65.0367 83.6902 66.6925C83.0858 68.3482 82.7836 70.1347 82.7836 72.0518C82.7836 73.969 83.0858 75.7492 83.6902 77.3925C84.2946 79.0358 85.2259 80.3617 86.484 81.37C87.7421 82.3784 89.3456 82.8826 91.2945 82.8826Z" fill="white"/>
<path d="M116.309 86.2439L107.65 57.561H112.239L118.381 79.5213H118.677L124.746 57.561H129.408L135.403 79.4466H135.699L141.842 57.561H146.43L137.771 86.2439H133.479L127.262 64.2088H126.818L120.602 86.2439H116.309Z" fill="white"/>
<path d="M163.151 86.8415C160.413 86.8415 158.051 86.2315 156.065 85.0114C154.092 83.779 152.568 82.061 151.495 79.8575C150.434 77.6415 149.904 75.0645 149.904 72.1265C149.904 69.1885 150.434 66.5991 151.495 64.3582C152.568 62.1049 154.061 60.3496 155.973 59.0922C157.897 57.8224 160.142 57.1875 162.707 57.1875C164.187 57.1875 165.649 57.4365 167.092 57.9344C168.535 58.4324 169.849 59.2416 171.033 60.362C172.217 61.47 173.161 62.939 173.864 64.7691C174.567 66.5991 174.919 68.8524 174.919 71.529V73.3963H153.012V69.5869H170.478C170.478 67.9685 170.157 66.5244 169.516 65.2546C168.887 63.9848 167.987 62.9826 166.815 62.2481C165.655 61.5136 164.286 61.1463 162.707 61.1463C160.968 61.1463 159.463 61.5821 158.193 62.4535C156.935 63.3125 155.966 64.4329 155.288 65.8148C154.61 67.1966 154.27 68.6781 154.27 70.2591V72.7988C154.27 74.9649 154.64 76.8012 155.381 78.3075C156.133 79.8014 157.175 80.9405 158.507 81.7248C159.84 82.4967 161.388 82.8826 163.151 82.8826C164.299 82.8826 165.335 82.7208 166.26 82.3971C167.197 82.061 168.005 81.563 168.683 80.9032C169.362 80.2309 169.886 79.3968 170.256 78.4009L174.475 79.596C174.031 81.0401 173.284 82.31 172.236 83.4055C171.187 84.4886 169.892 85.3351 168.35 85.9451C166.809 86.5427 165.076 86.8415 163.151 86.8415Z" fill="white"/>
<path d="M181.561 86.2439V57.561H185.779V61.8933H186.075C186.593 60.4741 187.531 59.3225 188.888 58.4386C190.244 57.5547 191.774 57.1128 193.476 57.1128C193.797 57.1128 194.198 57.119 194.679 57.1315C195.16 57.1439 195.524 57.1626 195.77 57.1875V61.6692C195.622 61.6319 195.283 61.5758 194.753 61.5011C194.235 61.414 193.686 61.3704 193.106 61.3704C191.725 61.3704 190.491 61.663 189.406 62.2481C188.333 62.8208 187.481 63.6175 186.852 64.6383C186.236 65.6467 185.927 66.7983 185.927 68.093V86.2439H181.561Z" fill="white"/>
<path d="M211.996 86.8415C209.258 86.8415 206.896 86.2315 204.91 85.0114C202.937 83.779 201.413 82.061 200.34 79.8575C199.279 77.6415 198.749 75.0645 198.749 72.1265C198.749 69.1885 199.279 66.5991 200.34 64.3582C201.413 62.1049 202.906 60.3496 204.818 59.0922C206.742 57.8224 208.987 57.1875 211.552 57.1875C213.033 57.1875 214.494 57.4365 215.937 57.9344C217.381 58.4324 218.694 59.2416 219.878 60.362C221.062 61.47 222.006 62.939 222.709 64.7691C223.412 66.5991 223.764 68.8524 223.764 71.529V73.3963H201.857V69.5869H219.323C219.323 67.9685 219.003 66.5244 218.361 65.2546C217.732 63.9848 216.832 62.9826 215.66 62.2481C214.5 61.5136 213.131 61.1463 211.552 61.1463C209.813 61.1463 208.308 61.5821 207.038 62.4535C205.78 63.3125 204.812 64.4329 204.133 65.8148C203.455 67.1966 203.116 68.6781 203.116 70.2591V72.7988C203.116 74.9649 203.486 76.8012 204.226 78.3075C204.978 79.8014 206.02 80.9405 207.352 81.7248C208.685 82.4967 210.233 82.8826 211.996 82.8826C213.144 82.8826 214.18 82.7208 215.105 82.3971C216.042 82.061 216.85 81.563 217.529 80.9032C218.207 80.2309 218.731 79.3968 219.101 78.4009L223.32 79.596C222.876 81.0401 222.129 82.31 221.081 83.4055C220.032 84.4886 218.737 85.3351 217.196 85.9451C215.654 86.5427 213.921 86.8415 211.996 86.8415Z" fill="white"/>
<path d="M241.137 86.8415C238.769 86.8415 236.678 86.2377 234.865 85.0301C233.052 83.8101 231.633 82.0921 230.609 79.8761C229.586 77.6477 229.074 75.0147 229.074 71.9771C229.074 68.9644 229.586 66.3501 230.609 64.1341C231.633 61.9182 233.058 60.2064 234.883 58.9989C236.709 57.7913 238.818 57.1875 241.211 57.1875C243.061 57.1875 244.523 57.4987 245.596 58.1212C246.681 58.7312 247.508 59.4284 248.075 60.2127C248.655 60.9845 249.105 61.6194 249.426 62.1174H249.796V48H254.162V86.2439H249.944V81.8369H249.426C249.105 82.3598 248.649 83.0196 248.057 83.8163C247.465 84.6006 246.62 85.304 245.522 85.9264C244.424 86.5365 242.963 86.8415 241.137 86.8415ZM241.729 82.8826C243.481 82.8826 244.961 82.422 246.17 81.5008C247.378 80.5671 248.297 79.2786 248.926 77.6353C249.555 75.9795 249.87 74.0686 249.87 71.9024C249.87 69.7612 249.562 67.8876 248.945 66.2816C248.328 64.6632 247.415 63.4059 246.207 62.5095C244.998 61.6007 243.505 61.1463 241.729 61.1463C239.879 61.1463 238.337 61.6256 237.104 62.5842C235.882 63.5304 234.964 64.8188 234.347 66.4497C233.742 68.0681 233.44 69.8857 233.44 71.9024C233.44 73.9441 233.749 75.799 234.365 77.4672C234.994 79.123 235.919 80.4426 237.141 81.4261C238.374 82.3971 239.904 82.8826 241.729 82.8826Z" fill="white"/>
<path d="M278.011 86.2439V48H282.378V62.1174H282.748C283.069 61.6194 283.513 60.9845 284.08 60.2127C284.66 59.4284 285.486 58.7312 286.559 58.1212C287.645 57.4987 289.113 57.1875 290.963 57.1875C293.356 57.1875 295.465 57.7913 297.29 58.9989C299.116 60.2064 300.541 61.9182 301.564 64.1341C302.588 66.3501 303.1 68.9644 303.1 71.9771C303.1 75.0147 302.588 77.6477 301.564 79.8761C300.541 82.0921 299.122 83.8101 297.309 85.0301C295.496 86.2377 293.405 86.8415 291.037 86.8415C289.211 86.8415 287.75 86.5365 286.652 85.9264C285.554 85.304 284.709 84.6006 284.117 83.8163C283.525 83.0196 283.069 82.3598 282.748 81.8369H282.23V86.2439H278.011ZM282.304 71.9024C282.304 74.0686 282.618 75.9795 283.247 77.6353C283.876 79.2786 284.795 80.5671 286.004 81.5008C287.213 82.422 288.693 82.8826 290.445 82.8826C292.27 82.8826 293.794 82.3971 295.015 81.4261C296.248 80.4426 297.173 79.123 297.79 77.4672C298.419 75.799 298.734 73.9441 298.734 71.9024C298.734 69.8857 298.425 68.0681 297.808 66.4497C297.204 64.8188 296.285 63.5304 295.052 62.5842C293.831 61.6256 292.295 61.1463 290.445 61.1463C288.668 61.1463 287.176 61.6007 285.967 62.5095C284.758 63.4059 283.846 64.6632 283.229 66.2816C282.612 67.8876 282.304 69.7612 282.304 71.9024Z" fill="white"/>
<path d="M311.574 97C310.834 97 310.174 96.9378 309.594 96.8133C309.014 96.7012 308.614 96.5892 308.392 96.4771L309.502 92.593C310.562 92.8669 311.5 92.9665 312.314 92.8918C313.128 92.8171 313.85 92.4498 314.479 91.79C315.12 91.1427 315.706 90.0907 316.236 88.6341L317.05 86.3933L306.541 57.561H311.278L319.123 80.4177H319.419L327.263 57.561H332L319.937 90.4268C319.394 91.9083 318.722 93.1345 317.92 94.1056C317.118 95.089 316.187 95.8173 315.126 96.2904C314.078 96.7635 312.894 97 311.574 97Z" fill="white"/>
<path d="M497.04 56C486 56 478.04 63.2 478.04 74C478.04 84.8 487 92 498.04 92C504.71 92 510.59 89.36 514.23 84.91L506.58 80.49C504.56 82.7 501.49 83.99 498.04 83.99C493.25 83.99 489.18 81.49 487.67 77.49H515.69C515.91 76.37 516.04 75.21 516.04 73.99C516.04 63.2 508.08 56 497.04 56ZM487.58 70.5C488.83 66.51 492.25 64 497.03 64C501.82 64 505.24 66.51 506.48 70.5H487.58ZM604.72 56C593.68 56 585.72 63.2 585.72 74C585.72 84.8 594.68 92 605.72 92C612.39 92 618.27 89.36 621.91 84.91L614.26 80.49C612.24 82.7 609.17 83.99 605.72 83.99C600.93 83.99 596.86 81.49 595.35 77.49H623.37C623.59 76.37 623.72 75.21 623.72 73.99C623.72 63.2 615.76 56 604.72 56ZM595.27 70.5C596.52 66.51 599.94 64 604.72 64C609.51 64 612.93 66.51 614.17 70.5H595.27ZM556.24 74C556.24 80 560.16 84 566.24 84C570.36 84 573.45 82.13 575.04 79.08L582.72 83.51C579.54 88.81 573.58 92 566.24 92C555.19 92 547.24 84.8 547.24 74C547.24 63.2 555.2 56 566.24 56C573.58 56 579.53 59.19 582.72 64.49L575.04 68.92C573.45 65.87 570.36 64 566.24 64C560.17 64 556.24 68 556.24 74ZM638.72 45V91H629.72V45H638.72ZM392.95 40L429.9 104H356L392.95 40ZM485.33 45L457.62 93L429.91 45H440.3L457.62 75L474.94 45H485.33ZM544.24 57V66.69C543.24 66.4 542.18 66.2 541.04 66.2C535.23 66.2 531.04 70.2 531.04 76.2V91H522.04V57H531.04V66.2C531.04 61.12 536.95 57 544.24 57Z" fill="white"/>
</svg>
